<?xml version="1.0" encoding="UTF-8"?>
<svg xmlns="http://www.w3.org/2000/svg" width="920" height="500" viewBox="0 0 920 500" role="img" aria-label="LearningClock Obsidian dashboard bar chart">
  <rect width="920" height="500" fill="#f3f7fb"/>
  <text x="38" y="44" fill="#111827" font-family="Segoe UI, Arial, sans-serif" font-size="28" font-weight="700">LearningClock Learning Time</text>
  <rect x="34" y="60" width="852" height="404" rx="18" fill="#f8fbff" stroke="#c5d8ec" stroke-width="2"/>
  <line x1="58" y1="322" x2="862" y2="322" stroke="#a9c5df" stroke-width="3"/>
  <g font-family="Segoe UI, Arial, sans-serif">
    
            <rect x="58.0" y="94" width="104.6" height="228" rx="8" fill="#3279b7"/>
            <text x="110.3" y="118" fill="#ffffff" font-size="14" font-weight="700" text-anchor="middle">00:10:00</text>
            <rect x="174.6" y="117" width="104.6" height="205" rx="8" fill="#4c8fc2"/>
            <text x="226.9" y="141" fill="#ffffff" font-size="14" font-weight="700" text-anchor="middle">00:09:00</text>
            <rect x="291.1" y="163" width="104.6" height="159" rx="8" fill="#6aa2cc"/>
            <text x="343.4" y="187" fill="#ffffff" font-size="14" font-weight="700" text-anchor="middle">00:07:00</text>
            <rect x="407.7" y="140" width="104.6" height="182" rx="8" fill="#2f6f9f"/>
            <text x="460.0" y="164" fill="#ffffff" font-size="14" font-weight="700" text-anchor="middle">00:08:00</text>
            <rect x="524.3" y="254" width="104.6" height="68" rx="8" fill="#7aa9c9"/>
            <text x="576.6" y="278" fill="#ffffff" font-size="14" font-weight="700" text-anchor="middle">00:03:00</text>
            <rect x="640.9" y="186" width="104.6" height="136" rx="8" fill="#4f86b3"/>
            <text x="693.1" y="210" fill="#ffffff" font-size="14" font-weight="700" text-anchor="middle">00:06:00</text>
            <rect x="757.4" y="277" width="104.6" height="45" rx="8" fill="#245f8f"/>
            <text x="809.7" y="301" fill="#ffffff" font-size="14" font-weight="700" text-anchor="middle">00:02:00</text>
    <text x="110.3" y="360" fill="#111827" font-size="13" text-anchor="middle">Reading</text><text x="226.9" y="360" fill="#111827" font-size="13" text-anchor="middle">Outlining</text><text x="343.4" y="360" fill="#111827" font-size="13" text-anchor="middle">Memorizing</text><text x="460.0" y="360" fill="#111827" font-size="13" text-anchor="middle">Experimenting</text><text x="576.6" y="360" fill="#111827" font-size="13" text-anchor="middle">Audiobook</text><text x="693.1" y="360" fill="#111827" font-size="13" text-anchor="middle">Update Diavgeia</text><text x="809.7" y="352" fill="#111827" font-size="13" text-anchor="middle"><tspan x="809.7">Promote stable</tspan><tspan x="809.7" dy="16">concept</tspan></text>
  </g>
  <g font-family="Segoe UI, Arial, sans-serif" font-size="17" fill="#111827">
    <text x="58" y="430">Total time: <tspan fill="#164f86" font-weight="700">00:45:00</tspan></text>
    <text x="282" y="430">Total pages read: <tspan fill="#164f86" font-weight="700">8</tspan></text>
    <text x="516" y="430">Start Date: <tspan fill="#164f86" font-weight="700">06-05-26</tspan></text>
    <text x="706" y="430">Last Update: <tspan fill="#164f86" font-weight="700">06-06-26</tspan></text>
  </g>
</svg>
